<?xml version="1.0" encoding="UTF-8" standalone="no"?>
<!DOCTYPE svg PUBLIC "-//W3C//DTD SVG 20010904//EN"
              "http://www.w3.org/TR/2001/REC-SVG-20010904/DTD/svg10.dtd">
<svg id="logo-main" xmlns="http://www.w3.org/2000/svg" x="0px" y="0px" viewBox="0 0 800 400" style="enable-background:new 0 0 800 400" xml:space="preserve">
  <path d="M 110.29,211.13
           C 110.29,211.13 107.79,2.00 107.79,2.00
             107.79,2.00 6.88,2.67 6.88,2.67
             6.88,2.67 10.38,211.13 10.38,211.13
             10.38,237.25 30.47,258.75 56.00,261.04
             56.00,261.04 56.00,390.00 56.00,390.00
             56.00,390.00 17.56,390.00 17.56,390.00
             15.08,390.00 13.06,391.68 13.06,394.17
             13.06,396.65 15.08,398.67 17.56,398.67
             17.56,398.67 103.44,399.00 103.44,399.00
             105.92,399.00 107.94,396.98 107.94,394.50
             107.94,392.01 105.92,390.00 103.44,390.00
             103.44,390.00 65.00,390.00 65.00,390.00
             65.00,390.00 65.00,261.04 65.00,261.04
             90.53,258.75 110.29,237.25 110.29,211.13 Z
           M 98.79,11.00
           C 98.79,11.00 100.29,66.69 100.29,66.69
             100.29,66.69 89.15,66.69 89.15,66.69
             89.15,66.69 88.65,56.22 88.65,56.22
             88.65,53.74 86.63,51.72 84.15,51.72
             81.66,51.72 79.65,53.74 79.65,56.22
             79.65,56.22 80.15,67.19 80.15,67.19
             80.15,67.19 19.05,66.19 19.05,66.19
             19.05,66.19 16.38,11.67 16.38,11.67
             16.38,11.67 98.79,11.00 98.79,11.00 Z
           M 19.38,211.13
           C 19.38,211.13 19.05,75.19 19.05,75.19
             19.05,75.19 80.15,76.19 80.15,76.19
             80.15,76.19 80.15,108.51 80.15,108.51
             80.15,111.00 82.16,112.51 84.65,112.51
             87.13,112.51 89.15,110.50 89.15,108.01
             89.15,108.01 89.15,75.69 89.15,75.69
             89.15,75.69 100.29,75.69 100.29,75.69
             100.29,75.69 101.29,211.13 101.29,211.13
             101.29,233.80 83.17,252.25 60.50,252.25
             37.83,252.25 19.38,233.80 19.38,211.13 Z
           M 74.91,184.32
           C 85.45,184.32 94.02,175.57 94.02,164.82
             94.02,154.06 85.45,145.31 74.91,145.31
             64.38,145.31 55.80,154.06 55.80,164.82
             55.80,175.57 64.38,184.32 74.91,184.32 Z
           M 74.91,154.31
           C 80.49,154.31 85.02,159.02 85.02,164.82
             85.02,170.61 80.49,175.32 74.91,175.32
             69.34,175.32 64.80,170.61 64.80,164.82
             64.80,159.02 69.34,154.31 74.91,154.31 Z
           M 59.75,124.26
           C 59.75,115.48 53.08,108.33 44.46,108.33
             35.84,108.33 28.83,115.48 28.83,124.26
             28.83,133.05 35.84,140.19 44.46,140.19
             53.08,140.19 59.75,133.05 59.75,124.26 Z
           M 37.83,124.26
           C 37.83,120.44 40.80,117.33 44.46,117.33
             48.11,117.33 51.09,120.44 51.09,124.26
             51.09,128.09 48.11,131.19 44.46,131.19
             40.80,131.19 37.83,128.09 37.83,124.26 Z
           M 65.46,222.86
           C 65.46,214.73 58.85,208.45 50.73,208.45
             42.60,208.45 36.32,214.73 36.32,222.86
             36.32,230.98 42.93,237.59 51.06,237.59
             59.18,237.59 65.46,230.98 65.46,222.86 Z
           M 51.06,228.59
           C 47.90,228.59 45.32,226.02 45.32,222.86
             45.32,219.69 47.56,217.45 50.73,217.45
             53.89,217.45 56.46,220.03 56.46,223.19
             56.46,226.35 54.22,228.59 51.06,228.59 Z
           M 84.15,40.92
           C 86.63,40.92 88.65,38.91 88.65,36.42
             88.65,36.42 88.65,22.95 88.65,22.95
             88.65,20.46 86.63,18.45 84.15,18.45
             81.66,18.45 79.65,20.46 79.65,22.95
             79.65,22.95 79.65,36.43 79.65,36.43
             79.65,38.91 81.66,40.92 84.15,40.92 Z"/>
  <path d="M 181.95,151.05
           C 181.95,151.05 196.87,151.05 196.87,151.05
             206.47,151.05 213.60,152.86 218.27,156.51
             222.92,160.11 226.78,166.02 229.80,174.19
             232.82,182.36 234.34,191.90 234.34,202.80
             234.34,210.57 233.49,217.71 231.79,224.22
             230.11,230.71 227.77,236.13 224.81,240.41
             221.81,244.70 218.59,247.68 215.11,249.34
             211.66,250.97 205.64,251.78 197.07,251.78
             197.07,251.78 181.95,251.78 181.95,251.78
             181.95,251.78 181.95,151.05 181.95,151.05 Z
           M 194.48,168.96
           C 194.48,168.96 194.48,233.87 194.48,233.87
             194.48,233.87 200.32,233.87 200.32,233.87
             206.07,233.87 210.22,232.84 212.80,230.78
             215.39,228.74 217.51,225.30 219.14,220.44
             220.80,215.56 221.63,209.58 221.63,202.49
             221.63,191.59 219.66,183.10 215.75,177.06
             212.22,171.66 206.56,168.96 198.75,168.96
             198.75,168.96 194.48,168.96 194.48,168.96 Z
           M 262.17,177.91
           C 262.17,177.91 272.70,177.91 272.70,177.91
             272.70,177.91 272.70,188.12 272.70,188.12
             273.84,184.04 275.35,180.95 277.23,178.85
             279.11,176.75 281.17,175.67 283.41,175.67
             285.00,175.67 286.66,176.36 288.39,177.73
             288.39,177.73 284.57,195.19 284.57,195.19
             283.15,194.12 281.96,193.58 281.03,193.58
             279.14,193.58 277.56,195.30 276.25,198.75
             274.96,202.22 274.31,208.98 274.31,219.07
             274.31,219.07 274.34,222.57 274.34,222.57
             274.34,222.57 274.34,251.78 274.34,251.78
             274.34,251.78 262.17,251.78 262.17,251.78
             262.17,251.78 262.17,177.91 262.17,177.91 Z
           M 320.26,146.57
           C 322.41,146.57 324.25,147.78 325.80,150.20
             327.34,152.61 328.12,155.52 328.12,158.95
             328.12,162.33 327.34,165.24 325.82,167.63
             324.29,170.01 322.47,171.19 320.35,171.19
             318.18,171.19 316.32,169.99 314.78,167.57
             313.23,165.11 312.46,162.15 312.46,158.68
             312.46,155.35 313.22,152.50 314.75,150.13
             316.27,147.76 318.11,146.57 320.26,146.57 Z
           M 314.11,177.91
           C 314.11,177.91 326.40,177.91 326.40,177.91
             326.40,177.91 326.40,251.78 326.40,251.78
             326.40,251.78 314.11,251.78 314.11,251.78
             314.11,251.78 314.11,177.91 314.11,177.91 Z
           M 358.43,177.91
           C 358.43,177.91 370.64,177.91 370.64,177.91
             370.64,177.91 370.64,185.79 370.64,185.79
             373.41,182.01 375.93,179.39 378.19,177.91
             380.45,176.43 382.77,175.67 385.14,175.67
             389.98,175.67 394.09,178.24 397.48,183.37
             400.31,187.76 401.74,194.20 401.74,202.73
             401.74,202.73 401.74,251.78 401.74,251.78
             401.74,251.78 389.63,251.78 389.63,251.78
             389.63,251.78 389.63,219.77 389.63,219.77
             389.63,211.04 389.36,205.24 388.84,202.40
             388.31,199.53 387.39,197.34 386.09,195.86
             384.78,194.34 383.18,193.58 381.27,193.58
             378.79,193.58 376.66,194.83 374.88,197.32
             373.10,199.80 371.86,203.23 371.17,207.61
             370.80,209.90 370.64,214.84 370.64,222.43
             370.64,222.43 370.64,251.78 370.64,251.78
             370.64,251.78 358.43,251.78 358.43,251.78
             358.43,251.78 358.43,177.91 358.43,177.91 Z
           M 434.11,148.81
           C 434.11,148.81 446.37,148.81 446.37,148.81
             446.37,148.81 446.37,207.75 446.37,207.75
             446.37,207.75 464.41,177.91 464.41,177.91
             464.41,177.91 479.76,177.91 479.76,177.91
             479.76,177.91 458.76,212.72 458.76,212.72
             458.76,212.72 482.31,251.78 482.31,251.78
             482.31,251.78 467.09,251.78 467.09,251.78
             467.09,251.78 446.37,217.13 446.37,217.13
             446.37,217.13 446.37,251.78 446.37,251.78
             446.37,251.78 434.11,251.78 434.11,251.78
             434.11,251.78 434.11,148.81 434.11,148.81 Z
           M 509.49,251.78
           C 509.49,251.78 509.49,151.05 509.49,151.05
             509.49,151.05 519.87,151.05 519.87,151.05
             525.87,151.05 530.28,151.65 533.05,152.86
             537.00,154.50 540.15,157.54 542.47,161.99
             544.80,166.43 545.97,171.64 545.97,177.66
             545.97,181.58 545.44,185.14 544.37,188.36
             543.32,191.56 541.58,194.56 539.18,197.36
             543.20,200.18 546.13,203.72 547.99,207.95
             549.84,212.18 550.77,217.17 550.77,222.95
             550.77,228.52 549.81,233.58 547.90,238.14
             545.99,242.71 543.51,246.14 540.49,248.37
             537.48,250.66 533.31,251.78 527.98,251.78
             527.98,251.78 509.49,251.78 509.49,251.78 Z
           M 522.05,168.96
           C 522.05,168.96 522.05,191.34 522.05,191.34
             522.05,191.34 524.79,191.34 524.79,191.34
             527.84,191.34 530.11,190.31 531.59,188.23
             533.08,186.15 533.82,183.35 533.82,179.79
             533.82,176.48 533.11,173.84 531.71,171.89
             530.30,169.94 528.17,168.96 525.29,168.96
             525.29,168.96 522.05,168.96 522.05,168.96 Z
           M 522.05,209.25
           C 522.05,209.25 522.05,233.87 522.05,233.87
             522.05,233.87 525.21,233.87 525.21,233.87
             530.41,233.87 533.91,232.91 535.71,231.00
             537.52,229.10 538.43,226.30 538.43,222.63
             538.43,218.49 537.36,215.22 535.23,212.85
             533.11,210.46 529.58,209.25 524.64,209.25
             524.64,209.25 522.05,209.25 522.05,209.25 Z
           M 618.33,177.91
           C 618.33,177.91 630.53,177.91 630.53,177.91
             630.53,177.91 630.53,251.78 630.53,251.78
             630.53,251.78 618.33,251.78 618.33,251.78
             618.33,251.78 618.33,243.67 618.33,243.67
             615.93,247.32 613.53,249.99 611.13,251.60
             608.71,253.21 606.11,254.02 603.30,254.02
             596.99,254.02 591.54,250.30 586.93,242.82
             582.32,235.37 580.02,226.08 580.02,214.98
             580.02,203.47 582.24,194.03 586.69,186.68
             591.15,179.34 596.57,175.67 602.95,175.67
             605.87,175.67 608.61,176.57 611.19,178.33
             613.77,180.10 616.15,182.77 618.33,186.30
             618.33,186.30 618.33,177.91 618.33,177.91 Z
           M 605.45,193.58
           C 601.66,193.58 598.49,195.57 595.98,199.53
             593.48,203.47 592.23,208.53 592.23,214.71
             592.23,220.93 593.51,226.06 596.04,230.09
             598.61,234.12 601.76,236.11 605.50,236.11
             609.35,236.11 612.55,234.14 615.09,230.20
             617.64,226.24 618.91,221.04 618.91,214.64
             618.91,208.37 617.64,203.29 615.09,199.42
             612.55,195.53 609.34,193.58 605.45,193.58 Z
           M 693.66,188.36
           C 693.66,188.36 686.07,200.29 686.07,200.29
             682.99,195.82 680.20,193.58 677.68,193.58
             676.30,193.58 675.24,194.03 674.45,194.90
             673.66,195.77 673.28,196.85 673.28,198.17
             673.28,199.13 673.53,200.05 674.02,200.90
             674.52,201.73 675.74,202.87 677.68,204.28
             677.68,204.28 682.17,207.68 682.17,207.68
             686.90,211.17 690.15,214.73 691.91,218.38
             693.67,222.01 694.56,226.28 694.56,231.18
             694.56,237.67 692.98,243.11 689.78,247.48
             686.59,251.82 682.32,254.02 676.97,254.02
             669.84,254.02 664.16,249.87 659.92,241.59
             659.92,241.59 667.47,229.39 667.47,229.39
             668.91,231.41 670.58,233.02 672.52,234.25
             674.45,235.50 676.15,236.11 677.64,236.11
             679.25,236.11 680.56,235.53 681.55,234.36
             682.54,233.20 683.03,231.85 683.03,230.33
             683.03,227.51 681.25,224.76 677.68,222.07
             677.68,222.07 673.56,218.96 673.56,218.96
             665.66,213.03 661.70,205.58 661.70,196.62
             661.70,190.85 663.20,185.90 666.18,181.83
             669.14,177.73 672.97,175.67 677.59,175.67
             680.76,175.67 683.76,176.77 686.56,178.96
             689.35,181.15 691.72,184.29 693.66,188.36 Z
           M 773.45,218.20
           C 773.45,218.20 734.09,218.20 734.09,218.20
             734.67,223.68 736.20,228.05 738.66,231.27
             741.14,234.50 744.28,236.11 748.12,236.11
             752.68,236.11 756.61,233.58 759.90,228.52
             759.90,228.52 770.23,236.47 770.23,236.47
             767.65,242.42 764.57,246.85 760.97,249.72
             757.38,252.58 753.13,254.02 748.21,254.02
             740.54,254.02 734.32,250.34 729.50,242.96
             724.68,235.59 722.27,226.37 722.27,215.27
             722.27,203.90 724.67,194.45 729.47,186.93
             734.27,179.43 740.29,175.67 747.54,175.67
             755.20,175.67 761.46,179.27 766.27,186.44
             771.09,193.60 773.49,203.05 773.49,214.80
             773.49,214.80 773.45,218.20 773.45,218.20 Z
           M 761.16,204.77
           C 760.34,201.46 758.76,198.77 756.39,196.69
             754.00,194.61 751.24,193.58 748.09,193.58
             744.68,193.58 741.68,194.74 739.13,197.07
             737.50,198.52 736.01,201.10 734.63,204.77
             734.63,204.77 761.16,204.77 761.16,204.77 Z
           M 174.38,264.51
           C 174.38,264.51 777.38,264.51 777.38,264.51
             777.38,264.51 777.38,276.98 777.38,276.98
             777.38,276.98 174.38,276.98 174.38,276.98
             174.38,276.98 174.38,264.51 174.38,264.51 Z
           M 174.38,124.05
           C 174.38,124.05 777.38,124.05 777.38,124.05
             777.38,124.05 777.38,136.59 777.38,136.59
             777.38,136.59 174.38,136.59 174.38,136.59
             174.38,136.59 174.38,124.05 174.38,124.05 Z"/>
</svg>
